<svg version="1.1" id="Layer_1" xmlns="http://www.w3.org/2000/svg" xmlns:xlink="http://www.w3.org/1999/xlink" x="0px" y="0px"
	 width="100%" viewBox="0 0 512 512" enable-background="new 0 0 512 512" xml:space="preserve">
<path fill="#020202" opacity="1.000000" stroke="none" 
	d="
M1.000000,177.000000 
	C1.000000,119.333336 1.039024,62.166576 0.902922,5.000231 
	C0.894768,1.575241 1.576367,0.903139 5.000061,0.905342 
	C172.999985,1.013444 341.000000,1.013444 508.999939,0.905342 
	C512.423645,0.903139 513.096802,1.576367 513.094604,5.000061 
	C512.986511,172.999985 512.986511,341.000000 513.094604,508.999939 
	C513.096802,512.423645 512.423645,513.096802 508.999939,513.094604 
	C341.000000,512.986511 172.999985,512.986511 5.000061,513.094604 
	C1.576367,513.096802 0.901072,512.423889 0.904658,508.999908 
	C1.020375,398.500031 1.000000,288.000000 1.000000,177.000000 
z"/>
<path fill="#E5E8EC" opacity="1.000000" stroke="none" 
	d="
M170.999939,281.872253 
	C142.669907,281.872253 114.839745,281.834045 87.010025,281.927246 
	C83.999771,281.937317 81.768318,281.223236 79.517883,279.061615 
	C65.578461,265.672485 51.515308,252.410873 37.383076,239.224991 
	C35.032413,237.031754 33.929787,234.864914 33.936157,231.525345 
	C34.048069,172.865860 34.070332,114.205940 33.907024,55.546684 
	C33.895103,51.264561 35.084484,50.470238 39.125065,50.474194 
	C156.777664,50.589394 274.430420,50.599857 392.082947,50.446388 
	C396.706207,50.440361 397.517883,51.813274 397.411530,56.009422 
	C397.132141,67.028603 397.327850,67.033569 386.266205,67.033569 
	C343.771240,67.033569 301.276306,67.037239 258.781342,67.023636 
	C256.448883,67.022888 254.299103,67.099648 252.170349,68.532448 
	C233.120071,81.354683 213.992081,94.061432 194.895447,106.814896 
	C194.218903,107.266724 193.630905,107.851135 192.830322,108.516037 
	C212.935837,121.921204 232.886185,135.182190 252.769867,148.542404 
	C254.787537,149.898102 256.843048,149.743561 258.972321,149.744095 
	C303.300385,149.755219 347.628723,149.818375 391.956146,149.647751 
	C396.255890,149.631195 397.558594,150.509064 397.436188,155.020050 
	C397.083710,168.008942 397.137817,181.017303 397.414429,194.009872 
	C397.500946,198.074631 396.602325,199.250366 392.327057,199.232529 
	C348.999634,199.051620 305.670837,199.190414 262.343353,199.015945 
	C258.035370,198.998611 256.730530,199.878937 256.872711,204.386414 
	C257.233246,215.814255 256.981720,215.822174 268.182037,215.822189 
	C288.179657,215.822205 308.178131,215.915543 328.174164,215.737259 
	C331.822327,215.704758 332.850861,216.628723 331.809723,220.110901 
	C331.342041,221.675293 331.302338,223.398148 331.260254,225.053970 
	C331.080688,232.121338 331.106812,232.122101 324.229004,232.122116 
	C303.398132,232.122162 282.566803,232.192581 261.736908,232.051651 
	C258.329285,232.028580 256.804993,232.403519 256.877747,236.491287 
	C257.097229,248.818405 256.884705,248.822189 269.288483,248.822189 
	C288.286224,248.822189 307.286194,248.977493 326.280029,248.704636 
	C330.612885,248.642395 331.513489,249.942947 331.333893,253.966461 
	C330.999756,261.450623 330.986084,268.972168 331.335815,276.454926 
	C331.534485,280.704742 330.564575,282.012299 325.981079,281.995026 
	C274.487946,281.800842 222.993820,281.872253 170.999939,281.872253 
z"/>
<path fill="#FAD66F" opacity="1.000000" stroke="none" 
	d="
M347.905090,367.000000 
	C347.905060,320.017212 347.901550,273.534424 347.908234,227.051651 
	C347.909485,218.181610 350.259979,215.826538 359.115143,215.825073 
	C401.266205,215.818100 443.417236,215.816772 485.568298,215.827362 
	C493.841064,215.829453 496.446411,218.305878 496.449280,226.435791 
	C496.473877,296.409882 496.474365,366.383942 496.445465,436.358032 
	C496.442261,444.148285 493.606689,446.950531 485.933044,446.953857 
	C443.448792,446.972290 400.964508,446.971100 358.480255,446.955078 
	C350.725159,446.952179 347.921478,444.168701 347.913788,436.474457 
	C347.890808,413.482971 347.905273,390.491486 347.905090,367.000000 
z"/>
<path fill="#FDE8A5" opacity="1.000000" stroke="none" 
	d="
M250.999756,496.434784 
	C174.699417,496.434784 98.899002,496.387756 23.099024,496.548309 
	C18.414499,496.558228 17.299467,495.231689 17.425331,490.759644 
	C17.727875,480.009949 17.523256,479.683411 28.345095,480.141754 
	C33.385109,480.355194 34.291828,478.747345 34.132172,474.116913 
	C33.764420,463.451477 34.000443,463.088165 23.555685,463.582520 
	C18.233324,463.834381 17.247137,462.044434 17.417583,457.209137 
	C17.778368,446.974304 17.540766,446.598206 27.868643,447.112488 
	C33.366604,447.386230 34.315559,445.465942 34.130154,440.529114 
	C33.747723,430.346069 34.015709,430.335999 24.055964,430.333740 
	C17.531225,430.332275 17.531225,430.332275 17.529726,423.659668 
	C17.527548,413.964355 17.527548,413.964325 27.429880,413.963928 
	C34.014168,413.963623 34.014168,413.963654 34.014732,407.479828 
	C34.015614,397.336182 34.005669,397.070953 24.006546,397.445923 
	C19.027206,397.632690 17.117056,396.577332 17.385653,391.098785 
	C17.883623,380.941559 17.524645,380.923950 27.454828,380.923401 
	C34.014179,380.923035 34.014179,380.923035 34.014732,374.389679 
	C34.015594,364.252045 34.015594,364.252014 24.001808,364.250214 
	C17.530924,364.249054 17.530924,364.249084 17.529724,357.556519 
	C17.527998,347.923615 17.527998,347.923706 27.004549,347.923309 
	C28.503895,347.923218 30.011591,347.821442 31.500538,347.945465 
	C33.504795,348.112366 34.226280,347.221710 34.014999,345.338165 
	C33.996548,345.173676 34.005817,345.004852 34.014782,344.838715 
	C34.732620,331.532257 34.733536,331.440674 21.452751,331.321136 
	C18.519840,331.294739 17.470303,330.720276 17.439590,327.506561 
	C17.319672,314.959198 17.191175,314.775970 29.516352,314.983398 
	C33.392971,315.048645 34.543766,313.891815 34.045753,310.247559 
	C33.513527,306.352966 35.819958,301.133881 33.058399,298.853363 
	C30.747322,296.944794 25.741034,298.030762 21.955996,298.256561 
	C18.585100,298.457611 17.392103,297.619873 17.438646,293.959503 
	C17.648182,277.479980 17.530050,260.996277 17.530050,243.132812 
	C107.112900,327.735657 195.864655,411.553619 285.742157,496.434753 
	C273.496857,496.434753 262.498322,496.434753 250.999756,496.434784 
z"/>
<path fill="#838F9B" opacity="1.000000" stroke="none" 
	d="
M17.601421,27.948895 
	C17.602858,17.629652 17.602858,17.629644 27.667767,17.629644 
	C154.289734,17.629646 280.911713,17.629414 407.533691,17.630344 
	C413.934326,17.630390 413.934296,17.635073 413.940460,24.042765 
	C413.950012,33.993076 413.950043,33.993073 404.187500,33.993073 
	C277.232330,33.993061 150.277115,33.970364 23.322039,34.087593 
	C18.889051,34.091686 16.740665,33.138821 17.601421,27.948895 
z"/>
<path fill="#B4DD7F" opacity="1.000000" stroke="none" 
	d="
M272.099335,133.070435 
	C266.592407,133.934082 264.779602,132.204315 265.039520,126.797920 
	C265.524994,116.699799 265.176819,116.683052 275.324951,116.683060 
	C330.756134,116.683090 386.187439,116.738533 441.618164,116.576897 
	C446.004364,116.564110 447.209473,117.608101 447.075989,122.032425 
	C446.743256,133.063278 446.981079,133.070435 435.883575,133.070435 
	C381.451172,133.070435 327.018768,133.070435 272.099335,133.070435 
z"/>
<path fill="#FF826E" opacity="1.000000" stroke="none" 
	d="
M390.000122,83.683060 
	C407.829407,83.683189 425.159332,83.762993 442.487335,83.613869 
	C445.803741,83.585335 447.079346,84.239891 447.056305,87.916069 
	C446.980438,100.029556 447.141266,100.030571 434.939209,100.030571 
	C380.118713,100.030563 325.297974,99.967422 270.478088,100.147072 
	C265.957672,100.161888 264.948822,98.944031 265.070526,94.624184 
	C265.378693,83.689316 265.160217,83.683159 276.026611,83.683159 
	C313.851105,83.683144 351.675598,83.683128 390.000122,83.683060 
z"/>
<path fill="#FBE6A4" opacity="1.000000" stroke="none" 
	d="
M467.255310,133.080902 
	C464.749176,133.251755 463.341461,133.019989 463.360931,130.290955 
	C463.465057,115.672859 463.443359,101.053490 463.378204,86.434952 
	C463.368134,84.177246 464.340729,83.592598 466.385162,83.637054 
	C471.366089,83.745354 476.362793,83.503204 481.329773,83.796890 
	C489.230499,84.264015 495.429382,90.114883 496.184509,97.984665 
	C496.850677,104.926918 496.883026,111.941223 496.165009,118.880516 
	C495.341919,126.835136 488.744171,132.718674 480.682983,133.024292 
	C476.369690,133.187851 472.045807,133.071213 467.255310,133.080902 
z"/>
<path fill="#EED9C7" opacity="1.000000" stroke="none" 
	d="
M226.555435,105.550934 
	C233.884140,100.652519 240.924271,95.973877 248.480194,90.952454 
	C248.480194,102.641243 248.480194,113.753128 248.480194,125.732445 
	C239.648361,119.856987 231.294983,114.299835 222.941040,108.742294 
	C223.576035,107.034279 225.125229,106.635696 226.555435,105.550934 
z"/>
<path fill="#040404" opacity="1.000000" stroke="none" 
	d="
M52.407204,199.115601 
	C48.983490,194.238922 51.085728,188.950653 50.773945,183.872574 
	C50.683346,182.396988 52.547466,182.762192 53.632496,182.757858 
	C61.292442,182.727188 68.954643,182.841003 76.611389,182.681427 
	C78.959061,182.632492 80.206039,183.725601 81.507622,185.371246 
	C88.290733,193.947449 95.150368,202.463120 102.682693,211.873535 
	C104.544014,198.073425 106.284142,185.328506 107.978210,172.577454 
	C111.045204,149.492767 114.111900,126.407928 117.095474,103.312401 
	C117.408775,100.887238 118.237793,99.954895 120.830612,99.972260 
	C137.648697,100.084915 154.468140,100.073051 171.286499,99.981529 
	C173.664902,99.968575 174.315231,100.672279 174.438446,103.053856 
	C175.143433,116.680351 175.213104,116.676727 161.798004,116.676758 
	C153.305328,116.676781 144.805267,116.882195 136.323517,116.577934 
	C132.830200,116.452621 131.898376,117.663673 131.485550,120.885361 
	C128.420074,144.809036 125.178871,168.710190 121.985657,192.617462 
	C119.366013,212.230423 116.736496,231.842087 113.981506,252.424332 
	C106.504776,243.094025 99.574219,234.451904 92.651085,225.803848 
	C86.411041,218.009064 80.068901,210.292038 74.007256,202.360748 
	C72.057465,199.809570 69.977463,198.897705 66.854515,199.066696 
	C62.205563,199.318253 57.532833,199.130264 52.407204,199.115601 
z"/>
<path fill="#010101" opacity="1.000000" stroke="none" 
	d="
M159.675278,171.324661 
	C154.948044,166.599167 150.524246,162.068161 145.964172,157.678741 
	C144.402664,156.175690 143.810638,155.252808 145.766251,153.446503 
	C149.059998,150.404205 152.002396,146.981522 155.262802,143.539093 
	C166.491837,154.782166 177.394424,165.544037 188.079330,176.517838 
	C190.409973,178.911499 191.621399,178.755219 193.858414,176.464417 
	C204.557709,165.507767 215.443283,154.733002 226.252747,143.903473 
	C230.227005,147.905319 233.974335,151.678650 238.036789,155.769287 
	C227.185486,166.538879 216.394165,177.386703 205.412125,188.037903 
	C203.074692,190.304932 203.019608,191.528976 205.391403,193.822739 
	C216.398987,204.468231 227.210785,215.316162 238.197647,226.195572 
	C234.063019,230.288101 230.292542,234.020203 226.159424,238.111237 
	C215.495483,227.346649 204.748703,216.675064 194.245850,205.768585 
	C191.713242,203.138657 190.396393,202.909561 187.721176,205.691147 
	C177.219849,216.609848 166.419098,227.240555 155.707825,238.000122 
	C151.714340,234.034561 147.941925,230.288528 144.169510,226.542511 
	C147.599014,222.948441 150.975525,219.301926 154.469147,215.771317 
	C161.499710,208.666306 168.459229,201.481430 175.728973,194.627457 
	C178.608780,191.912338 179.212906,190.325531 175.910492,187.386642 
	C170.319458,182.411102 165.227234,176.875046 159.675278,171.324661 
z"/>
<path fill="#070707" opacity="1.000000" stroke="none" 
	d="
M343.000000,166.078506 
	C354.489288,166.078522 365.484009,166.275497 376.464966,165.973389 
	C380.392212,165.865326 381.077637,167.161163 381.029907,170.744659 
	C380.869659,182.779633 381.012634,182.781555 368.803925,182.781555 
	C333.171997,182.781555 297.539886,182.729248 261.908417,182.859390 
	C258.192352,182.872955 256.780243,182.217194 256.872070,178.064285 
	C257.137054,166.083191 256.925446,166.078506 269.071594,166.078506 
	C293.547729,166.078506 318.023865,166.078506 343.000000,166.078506 
z"/>
<path fill="#030403" opacity="1.000000" stroke="none" 
	d="
M400.000061,232.136597 
	C425.487000,232.136642 450.474182,232.188614 475.460571,232.072449 
	C478.667511,232.057556 480.128021,232.459290 480.087646,236.265610 
	C479.882507,255.586670 479.902710,274.911896 480.077759,294.233551 
	C480.108704,297.650696 478.984863,298.282745 475.856873,298.273956 
	C440.042542,298.173065 404.227692,298.168243 368.413422,298.280090 
	C365.149811,298.290253 364.165741,297.432037 364.191406,294.112457 
	C364.340820,274.790375 364.346588,255.465897 364.188354,236.143951 
	C364.160156,232.701172 365.379486,232.016617 368.517273,232.070251 
	C378.842224,232.246780 389.172058,232.136627 400.000061,232.136597 
z"/>
<path fill="#040402" opacity="1.000000" stroke="none" 
	d="
M380.919525,355.058655 
	C380.917206,347.912994 380.917206,347.912964 374.442078,347.911713 
	C364.262268,347.909760 364.227356,347.909637 364.275696,337.852539 
	C364.312042,330.292664 363.381439,331.277222 370.929535,331.239899 
	C380.917206,331.190491 381.280334,331.208191 380.773682,321.056122 
	C380.500885,315.589447 382.381958,314.563751 387.351746,314.757294 
	C397.306519,315.144989 397.604614,314.883026 397.198669,325.037140 
	C397.000031,330.006042 398.196381,331.592621 403.398987,331.366669 
	C413.943176,330.908691 413.629944,331.248322 414.093872,341.869812 
	C414.319916,347.045105 412.778809,348.228912 407.820892,348.036469 
	C397.347107,347.629883 397.126465,347.920624 397.422791,358.612152 
	C397.544922,363.017242 396.536713,365.187866 391.806061,364.300964 
	C391.162201,364.180206 390.476196,364.284332 389.809692,364.284363 
	C380.919556,364.284637 380.919556,364.284637 380.919525,355.058655 
z"/>
<path fill="#050402" opacity="1.000000" stroke="none" 
	d="
M472.951050,420.939850 
	C465.891541,427.996338 465.670227,428.199738 458.974487,420.914215 
	C455.828033,417.490662 453.928558,417.782867 451.342896,421.123199 
	C449.416077,423.612335 447.138031,425.829590 445.000153,428.185852 
	C443.727509,427.064117 442.946808,426.447906 442.249359,425.748688 
	C439.312439,422.804504 434.601105,420.171234 433.969147,416.784210 
	C433.294464,413.168060 438.738312,410.791901 441.462189,407.848724 
	C443.087128,406.092926 443.330017,404.922394 441.376221,403.494049 
	C441.110779,403.300018 440.886383,403.041534 440.670441,402.789337 
	C438.317505,400.041138 432.924652,397.168488 433.837402,394.963562 
	C435.546875,390.833771 440.032898,387.838013 443.417938,384.424042 
	C444.930450,382.898621 445.726807,384.562317 446.625397,385.351379 
	C449.610199,387.972260 452.062958,393.175201 455.307434,392.927826 
	C458.363617,392.694855 461.173218,388.071075 463.906097,385.202515 
	C465.466736,383.564301 466.614716,383.661957 467.913940,385.309021 
	C468.118927,385.568939 468.373077,385.790192 468.605347,386.028503 
	C471.390289,388.885498 475.980194,391.465424 476.472565,394.674133 
	C477.006500,398.153839 471.809753,400.533783 469.067169,403.316711 
	C467.201355,405.209900 467.214691,406.337799 469.167419,407.931396 
	C470.578674,409.083069 471.640564,410.681519 473.098846,411.753448 
	C477.190704,414.761047 477.725830,417.653442 472.951050,420.939850 
z"/>
<path fill="#090804" opacity="1.000000" stroke="none" 
	d="
M430.327881,339.043060 
	C430.329193,337.072601 430.405823,335.568634 430.313812,334.075043 
	C430.180145,331.905212 431.144073,331.179443 433.265717,331.187622 
	C447.925598,331.244080 462.585968,331.253906 477.245697,331.180023 
	C479.504089,331.168640 480.227600,332.091095 480.003571,334.146027 
	C479.985626,334.310608 479.996002,334.479187 480.003113,334.645508 
	C480.571259,347.922882 480.571381,347.922913 467.148346,347.922913 
	C456.819641,347.922913 446.479156,347.631866 436.167358,348.049652 
	C431.249023,348.248871 429.463654,346.780365 430.307617,342.009491 
	C430.450470,341.201813 430.327820,340.347137 430.327881,339.043060 
z"/>
<path fill="#020201" opacity="1.000000" stroke="none" 
	d="
M370.115723,397.315491 
	C365.185669,398.143890 364.035248,396.283142 364.159454,391.898926 
	C364.470154,380.930450 364.244904,380.924042 374.977997,380.924103 
	C386.634399,380.924164 398.293213,381.054535 409.945740,380.842712 
	C413.308960,380.781586 414.031342,381.862579 414.026184,385.037567 
	C414.006256,397.315308 414.119263,397.315491 402.072510,397.315491 
	C391.581726,397.315491 381.090973,397.315491 370.115723,397.315491 
z"/>
<path fill="#020201" opacity="1.000000" stroke="none" 
	d="
M370.144653,413.944214 
	C383.785339,413.944336 396.945770,414.034180 410.103210,413.876709 
	C413.107880,413.840759 414.023224,414.553925 414.038605,417.712067 
	C414.100189,430.360626 414.227783,430.360046 401.424805,430.359985 
	C390.430908,430.359924 379.435120,430.245605 368.444336,430.429932 
	C365.185638,430.484589 363.865112,429.585144 364.223328,426.234070 
	C364.469818,423.928406 364.555450,421.531921 364.210144,419.252167 
	C363.523682,414.719666 365.355743,413.156006 370.144653,413.944214 
z"/>
<path fill="#010100" opacity="1.000000" stroke="none" 
	d="
M79.198761,346.797577 
	C120.104828,385.442139 160.752350,423.843414 201.409058,462.253357 
	C200.177917,464.133759 198.528259,463.388245 197.192780,463.389526 
	C149.887131,463.435059 102.581459,463.428406 55.275780,463.425201 
	C52.841026,463.425049 50.485355,464.101196 50.499451,459.895721 
	C50.652409,414.256226 50.597069,368.616089 50.611668,322.976105 
	C50.611862,322.369812 50.782158,321.763550 51.009014,320.250519 
	C60.662182,329.341248 69.801193,337.947754 79.198761,346.797577 
z"/>
<path fill="#68D5F2" opacity="1.000000" stroke="none" 
	d="
M417.999939,281.845367 
	C406.515320,281.845215 395.529541,281.757141 384.546936,281.905548 
	C381.734711,281.943573 380.814758,281.160156 380.871887,278.286774 
	C381.043854,269.635651 381.053131,260.976349 380.867676,252.325790 
	C380.804932,249.398788 381.830322,248.771225 384.558533,248.781372 
	C409.523193,248.874222 434.488556,248.879379 459.453156,248.777390 
	C462.366241,248.765488 463.563385,249.320648 463.473785,252.570511 
	C463.240021,261.052185 463.270477,269.547333 463.459778,278.031219 
	C463.529724,281.165710 462.425568,281.937317 459.442017,281.906647 
	C445.795898,281.766449 432.147522,281.845245 417.999939,281.845367 
z"/>
</svg>